<?xml version="1.0" encoding="UTF-8" standalone="no"?>
<svg xmlns:rdf="http://www.w3.org/1999/02/22-rdf-syntax-ns#" xmlns="http://www.w3.org/2000/svg" height="16px" width="16px" version="1.1" xmlns:cc="http://creativecommons.org/ns#" xmlns:dc="http://purl.org/dc/elements/1.1/">
 <polygon points="58.244 5.911 41.757 5.911 41.757 40.667 7 40.667 7 57.154 41.757 57.154 41.757 91.91 58.244 91.91 58.244 57.154 93 57.154 93 40.667 58.244 40.667" fill="#fff" transform="matrix(.17442 0 0 .17442 -.72093 -0.031)"/>
 <polygon points="58.244 40.667 58.244 5.911 41.757 5.911 41.757 40.667 7 40.667 7 57.154 41.757 57.154 41.757 91.91 58.244 91.91 58.244 57.154 93 57.154 93 40.667" fill="#333" transform="matrix(.17442 0 0 .17442 -.72093 -1.031)"/>
</svg>
