<?xml version="1.0" encoding="UTF-8" standalone="no"?>
<!-- Created with Inkscape (http://www.inkscape.org/) -->

<svg
   xmlns:dc="http://purl.org/dc/elements/1.1/"
   xmlns:cc="http://creativecommons.org/ns#"
   xmlns:rdf="http://www.w3.org/1999/02/22-rdf-syntax-ns#"
   xmlns:svg="http://www.w3.org/2000/svg"
   xmlns="http://www.w3.org/2000/svg"
   xmlns:sodipodi="http://sodipodi.sourceforge.net/DTD/sodipodi-0.dtd"
   xmlns:inkscape="http://www.inkscape.org/namespaces/inkscape"
   width="16px"
   height="16px"
   id="svg3024"
   version="1.1"
   inkscape:version="0.48.3.1 r9886"
   sodipodi:docname="add.svg">
  <sodipodi:namedview
     id="base"
     pagecolor="#ffffff"
     bordercolor="#666666"
     borderopacity="1.0"
     inkscape:pageopacity="0.0"
     inkscape:pageshadow="2"
     inkscape:zoom="22.197802"
     inkscape:cx="8"
     inkscape:cy="7.5402568"
     inkscape:current-layer="layer2"
     showgrid="true"
     inkscape:grid-bbox="true"
     inkscape:document-units="px"
     inkscape:window-width="1280"
     inkscape:window-height="729"
     inkscape:window-x="-2"
     inkscape:window-y="-3"
     inkscape:window-maximized="1" />
  <defs
     id="defs3026" />
  <metadata
     id="metadata3029">
    <rdf:RDF>
      <cc:Work
         rdf:about="">
        <dc:format>image/svg+xml</dc:format>
        <dc:type
           rdf:resource="http://purl.org/dc/dcmitype/StillImage" />
        <dc:title />
      </cc:Work>
    </rdf:RDF>
  </metadata>
  <g
     inkscape:groupmode="layer"
     id="layer2"
     inkscape:label="Layer">
    <polygon
       transform="matrix(0.1744186,0,0,0.17442063,-0.72093023,-0.0310001)"
       points="58.244,5.911 41.757,5.911 41.757,40.667 7,40.667 7,57.154 41.757,57.154 41.757,91.91 58.244,91.91 58.244,57.154 93,57.154 93,40.667 58.244,40.667 "
       id="polygon3-4"
       style="fill:#ffffff" />
  </g>
  <g
     id="layer1"
     inkscape:label="Layer 1"
     inkscape:groupmode="layer">
    <polygon
       transform="matrix(0.1744186,0,0,0.17442063,-0.7209302,-1.0310001)"
       points="58.244,40.667 58.244,5.911 41.757,5.911 41.757,40.667 7,40.667 7,57.154 41.757,57.154 41.757,91.91 58.244,91.91 58.244,57.154 93,57.154 93,40.667 "
       id="polygon3"
       style="fill:#333333" />
  </g>
</svg>
