<?xml version="1.0" encoding="UTF-8" standalone="no"?>
<svg
   xmlns:dc="http://purl.org/dc/elements/1.1/"
   xmlns:cc="http://creativecommons.org/ns#"
   xmlns:rdf="http://www.w3.org/1999/02/22-rdf-syntax-ns#"
   xmlns:svg="http://www.w3.org/2000/svg"
   xmlns="http://www.w3.org/2000/svg"
   xmlns:sodipodi="http://sodipodi.sourceforge.net/DTD/sodipodi-0.dtd"
   xmlns:inkscape="http://www.inkscape.org/namespaces/inkscape"
   height="32"
   width="32"
   version="1.0"
   viewBox="0 0 32 32"
   id="svg4"
   sodipodi:docname="app-dark.svg"
   inkscape:version="0.92.1 r">
  <metadata
     id="metadata10">
    <rdf:RDF>
      <cc:Work
         rdf:about="">
        <dc:format>image/svg+xml</dc:format>
        <dc:type
           rdf:resource="http://purl.org/dc/dcmitype/StillImage" />
      </cc:Work>
    </rdf:RDF>
  </metadata>
  <defs
     id="defs8" />
  <sodipodi:namedview
     pagecolor="#ffffff"
     bordercolor="#666666"
     borderopacity="1"
     objecttolerance="10"
     gridtolerance="10"
     guidetolerance="10"
     inkscape:pageopacity="0"
     inkscape:pageshadow="2"
     inkscape:window-width="789"
     inkscape:window-height="480"
     id="namedview6"
     showgrid="false"
     inkscape:zoom="7.375"
     inkscape:cx="16.271186"
     inkscape:cy="15.457627"
     inkscape:window-x="2422"
     inkscape:window-y="241"
     inkscape:window-maximized="0"
     inkscape:current-layer="svg4" />
  <path
     d="m3 2c-0.554 0-1 0.446-1 1v2c0 0.554 0.446 1 1 1h26c0.554 0 1-0.446 1-1v-2c0-0.554-0.446-1-1-1h-26zm0 8c-0.554 0-1 0.446-1 1v2c0 0.554 0.446 1 1 1h18c0.554 0 1-0.446 1-1v-2c0-0.554-0.446-1-1-1h-18zm0 8c-0.554 0-1 0.446-1 1v2c0 0.554 0.446 1 1 1h24c0.554 0 1-0.446 1-1v-2c0-0.554-0.446-1-1-1h-24zm0 8c-0.554 0-1 0.446-1 1v2c0 0.554 0.446 1 1 1h12c0.554 0 1-0.446 1-1v-2c0-0.554-0.446-1-1-1h-12z"
     fill="#FFF"
     id="path2"
     style="fill:#333333" />
</svg>
