<?xml version="1.0" encoding="UTF-8" standalone="no"?>
<svg xmlns:rdf="http://www.w3.org/1999/02/22-rdf-syntax-ns#" xmlns="http://www.w3.org/2000/svg" height="32" width="32" version="1.0" xmlns:cc="http://creativecommons.org/ns#" xmlns:dc="http://purl.org/dc/elements/1.1/">
 <path d="m3 2c-0.554 0-1 0.446-1 1v2c0 0.554 0.446 1 1 1h26c0.554 0 1-0.446 1-1v-2c0-0.554-0.446-1-1-1h-26zm0 8c-0.554 0-1 0.446-1 1v2c0 0.554 0.446 1 1 1h18c0.554 0 1-0.446 1-1v-2c0-0.554-0.446-1-1-1h-18zm0 8c-0.554 0-1 0.446-1 1v2c0 0.554 0.446 1 1 1h24c0.554 0 1-0.446 1-1v-2c0-0.554-0.446-1-1-1h-24zm0 8c-0.554 0-1 0.446-1 1v2c0 0.554 0.446 1 1 1h12c0.554 0 1-0.446 1-1v-2c0-0.554-0.446-1-1-1h-12z" fill="#FFF"/>
</svg>
