<?xml version="1.0" encoding="utf-8"?>
<!-- Generator: Adobe Illustrator 16.0.0, SVG Export Plug-In . SVG Version: 6.00 Build 0)  -->
<!DOCTYPE svg PUBLIC "-//W3C//DTD SVG 1.1//EN" "http://www.w3.org/Graphics/SVG/1.1/DTD/svg11.dtd">
<svg version="1.1"
	 id="Ebene_1" xmlns:rdf="http://www.w3.org/1999/02/22-rdf-syntax-ns#" xmlns:cc="http://creativecommons.org/ns#" xmlns:dc="http://purl.org/dc/elements/1.1/"
	 xmlns="http://www.w3.org/2000/svg" xmlns:xlink="http://www.w3.org/1999/xlink" x="0px" y="0px" width="322px" height="306.45px"
	 viewBox="0 0 322 306.45" enable-background="new 0 0 322 306.45" xml:space="preserve">
<g transform="translate(-148.04 -745.93)">
	<g>
		<polygon fill="#FFDF5A" points="309.792,984.422 217.007,1041.281 243.382,937.427 160.636,866.756 267.557,859.748 
			309.202,759.205 348.907,858.731 457.388,867.267 375.007,935.783 400.412,1041.598 		"/>
		<path fill="#FFCC00" d="M309.115,772.481l33.996,85.214l2.305,5.776l6.199,0.488l93.12,7.327L374.2,929.951l-4.781,3.977
			l1.452,6.047l21.809,90.833l-77.59-48.955l-5.259-3.318l-5.302,3.249l-79.648,48.809l22.583-88.92l1.531-6.027l-4.729-4.039
			l-71.031-60.664l91.546-6l6.206-0.407l2.379-5.745L309.115,772.481 M309.289,745.93l-45.162,109.032l-116.09,7.609l89.734,76.639
			l-28.637,112.76l100.62-61.66l98.392,62.08l-27.551-114.75l89.445-74.393l-117.641-9.257L309.289,745.93L309.289,745.93z"/>
	</g>
</g>
</svg>
