<?xml version="1.0" encoding="UTF-8" standalone="no"?>
<!-- Created with Inkscape (http://www.inkscape.org/) -->

<svg
   xmlns:svg="http://www.w3.org/2000/svg"
   xmlns="http://www.w3.org/2000/svg"
   version="1.1"
   width="16"
   height="16"
   id="svg2839">
  <defs
     id="defs2841" />
  <g
     id="layer1">
    <path
       d="M 0,1 0,2 8.0000002,2 16,2 16,1.142856 16,0 8.0000002,0 0,0 0,1.142856 z"
       id="path2821"
       style="fill:#000000;fill-opacity:0.70588235" />
    <path
       d="M 0,6 0,7 5.818182,7 12,7 12,5.714283 12,5 5.818182,5 0,5 0,6 z"
       id="path2818"
       style="fill:#000000;fill-opacity:0.70588235" />
    <path
       d="M 0,10 0,11 7.2727278,11 15,11 15,10.285714 15,9 7.2727278,9 0,9 0,10 z"
       id="path2816"
       style="fill:#000000;fill-opacity:0.70588235" />
    <path
       d="M 0,15 0,16 4.727272,16 9,16 9,14.857143 9,14 4.727272,14 0,14 0,15 z"
       id="path2820"
       style="fill:#000000;fill-opacity:0.70588235" />
  </g>
</svg>
