<?xml version="1.0" encoding="UTF-8" standalone="no"?>
<svg xmlns:rdf="http://www.w3.org/1999/02/22-rdf-syntax-ns#" xmlns="http://www.w3.org/2000/svg" enable-background="new -0.5 -0.5 16 16" xml:space="preserve" overflow="visible" height="16px" width="16px" version="1.1" y="0px" x="0px" xmlns:cc="http://creativecommons.org/ns#" xmlns:dc="http://purl.org/dc/elements/1.1/" viewBox="-0.5 -0.5 16 16">
<circle opacity="0" cx="7.5" transform="translate(.066667 .4)" cy="7.5" r="7.5"/>
<g transform="translate(.066667 1.0667)">
	<path fill="#575756" d="m7.3832 11.62c-0.54975 0.54975-1.4486 0.54975-1.9983 0l-0.5003-0.5c-0.54975-0.54975-0.54834-1.4486 0-1.9983l5.9949-5.9949c0.54975-0.54975 1.4486-0.54975 1.9983 0l0.49887 0.49887c0.54975 0.54975 0.54975 1.45 0 1.9997l-5.9938 5.9946z"/>
</g>
<g transform="translate(.066667 1.0667)">
	<path fill="#575756" d="m7.3832 11.62c-0.54975 0.54975-1.4486 0.54975-1.9983 0l-3.4949-3.4987c-0.5512-0.5498-0.5498-1.4486 0.0014-1.9983l0.4975-0.4961c0.55116-0.54975 1.45-0.54834 1.9997 0l3.4949 3.4935c0.54975 0.54975 0.54975 1.4486 0 1.9983l-0.50029 0.5017z"/>
</g>
</svg>
