<?xml version="1.0" encoding="UTF-8" standalone="no"?>
<!-- Generator: Adobe Illustrator 15.1.0, SVG Export Plug-In  -->

<svg
   xmlns:dc="http://purl.org/dc/elements/1.1/"
   xmlns:cc="http://creativecommons.org/ns#"
   xmlns:rdf="http://www.w3.org/1999/02/22-rdf-syntax-ns#"
   xmlns:svg="http://www.w3.org/2000/svg"
   xmlns="http://www.w3.org/2000/svg"
   xmlns:sodipodi="http://sodipodi.sourceforge.net/DTD/sodipodi-0.dtd"
   xmlns:inkscape="http://www.inkscape.org/namespaces/inkscape"
   version="1.1"
   x="0px"
   y="0px"
   width="16px"
   height="16px"
   viewBox="-0.5 -0.5 16 16"
   overflow="visible"
   enable-background="new -0.5 -0.5 16 16"
   xml:space="preserve"
   id="svg3047"
   inkscape:version="0.48.4 r9939"
   sodipodi:docname="mark_read.svg"><metadata
   id="metadata3063"><rdf:RDF><cc:Work
       rdf:about=""><dc:format>image/svg+xml</dc:format><dc:type
         rdf:resource="http://purl.org/dc/dcmitype/StillImage" /></cc:Work></rdf:RDF></metadata><sodipodi:namedview
   pagecolor="#ffffff"
   bordercolor="#666666"
   borderopacity="1"
   objecttolerance="10"
   gridtolerance="10"
   guidetolerance="10"
   inkscape:pageopacity="0"
   inkscape:pageshadow="2"
   inkscape:window-width="1366"
   inkscape:window-height="709"
   id="namedview3061"
   showgrid="false"
   inkscape:zoom="15"
   inkscape:cx="13.497865"
   inkscape:cy="8"
   inkscape:window-x="0"
   inkscape:window-y="27"
   inkscape:window-maximized="1"
   inkscape:current-layer="svg3047" />
<defs
   id="defs3049">
</defs>
<circle
   cx="7.5"
   cy="7.5"
   r="7.5"
   id="circle3051"
   style="opacity:0;fill:#ffffff"
   sodipodi:cx="7.5"
   sodipodi:cy="7.5"
   sodipodi:rx="7.5"
   sodipodi:ry="7.5"
   transform="translate(0.06666667,0.4)" />
<g
   id="g3053"
   transform="translate(0.06666667,1.0666667)">
	<path
   d="m 7.3832425,11.620439 c -0.5497484,0.549748 -1.4485659,0.549748 -1.9983143,0 L 4.884643,11.120153 c -0.5497484,-0.549748 -0.5483351,-1.4485653 0,-1.9983137 l 5.994942,-5.9949428 c 0.549749,-0.5497484 1.448566,-0.5497484 1.998315,0 l 0.498872,0.4988719 c 0.549748,0.5497484 0.549748,1.4499791 0,1.9997275 L 7.3832425,11.620439 z"
   id="path3055"
   inkscape:connector-curvature="0"
   style="fill:#575756" />
</g>
<g
   id="g3057"
   transform="translate(0.06666667,1.0666667)">
	<path
   d="m 7.3832425,11.620439 c -0.5497484,0.549748 -1.4485659,0.549748 -1.9983143,0 L 1.8899981,8.1212689 C 1.3388365,7.5715205 1.3402497,6.672703 1.8914113,6.1229546 L 2.3888701,5.6269092 c 0.5511616,-0.5497484 1.449979,-0.5483352 1.9997274,0 L 7.8835276,9.120426 c 0.5497487,0.5497484 0.5497487,1.448566 0,1.998314 l -0.5002851,0.501699 z"
   id="path3059"
   inkscape:connector-curvature="0"
   style="fill:#575756" />
</g>
</svg>