<?xml version="1.0" encoding="UTF-8" standalone="no"?>
<svg xmlns:rdf="http://www.w3.org/1999/02/22-rdf-syntax-ns#" xmlns="http://www.w3.org/2000/svg" height="16" width="16" version="1.1" xml:space="preserve" xmlns:cc="http://creativecommons.org/ns#" xmlns:xlink="http://www.w3.org/1999/xlink" xmlns:dc="http://purl.org/dc/elements/1.1/"><defs>
			<linearGradient id="a" y2="186.5" gradientUnits="userSpaceOnUse" x2="149.5" gradientTransform="translate(-56,-56)" y1="186.5" x1="149.5"><stop stop-color="#264fa1" offset="0"/><stop stop-color="#2658a1" offset=".1134"/><stop stop-color="#2570a1" offset=".29840"/><stop stop-color="#2492a1" offset=".5"/><stop stop-color="#2489a0" offset=".61470"/><stop stop-color="#26719f" offset=".8017"/><stop stop-color="#27509d" offset="1"/></linearGradient><filter id="g" height="1" width="1" color-interpolation-filters="sRGB" y="0" x="0"><feColorMatrix type="saturate" values="0"/></filter><filter id="f" height="1" width="1" color-interpolation-filters="sRGB" y="0" x="0"><feColorMatrix type="saturate" values="0"/></filter><filter id="e" height="1" width="1" color-interpolation-filters="sRGB" y="0" x="0"><feColorMatrix type="saturate" values="0"/></filter><filter id="d" height="1" width="1" color-interpolation-filters="sRGB" y="0" x="0"><feColorMatrix type="saturate" values="0"/></filter><filter id="c" height="1" width="1" color-interpolation-filters="sRGB" y="0" x="0"><feColorMatrix type="saturate" values="0"/></filter><linearGradient id="b" y2="11.994" gradientUnits="userSpaceOnUse" x2="11.993" gradientTransform="scale(.125)" y1="116.01" x1="116"><stop stop-color="#264fa1" offset="0"/><stop stop-color="#2658a1" offset=".1134"/><stop stop-color="#2570a1" offset=".29840"/><stop stop-color="#2492a1" offset=".5"/><stop stop-color="#2489a0" offset=".61470"/><stop stop-color="#26719f" offset=".8017"/><stop stop-color="#27509d" offset="1"/></linearGradient></defs>
	<path filter="url(#c)" fill="#244fa1" d="m16 12.588c0.054 1.893-1.708 3.554-3.592 3.412-3.0575-0.003-6.1153 0.006-9.1728-0.004-1.8471-0.046-3.3884-1.8-3.2352-3.634 0.0029306-3.042-0.0058797-6.084 0.0044379-9.1258 0.044816-1.847 1.7985-3.3896 3.6326-3.2362 3.0425 0.0029304 6.0852-0.0058799 9.128 0.004439 1.847 0.045102 3.388 1.7997 3.235 3.6336v8.9501z"/><path filter="url(#d)" fill="#2492a1" d="m15.714 12.424c0.05243 1.8278-1.6513 3.4306-3.4701 3.2901-2.9462-0.0028-5.8926 0.0057-8.8387-0.0043-1.7843-0.044-3.2706-1.741-3.1194-3.512 0.00286-2.9307-0.00565-5.8614 0.0043-8.7918 0.04316-1.7843 1.7397-3.2719 3.5109-3.1206 2.9311 0.002831 5.8624-0.005677 8.7935 0.00428 1.7846 0.043339 3.2712 1.7408 3.1199 3.5119v8.6224z"/><path filter="url(#e)" fill="url(#b)" d="m15.428 12.261c0.05049 1.7625-1.5945 3.3062-3.3478 3.168-2.835-0.0027-5.6702 0.0055-8.5051-0.0041-1.7213-0.042-3.1527-1.683-3.0035-3.391 0.00273-2.8189-0.00547-5.6383 0.00412-8.4574 0.04136-1.7219 1.681-3.1545 3.3893-3.0052 2.8199 0.00271 5.6399-0.0055 8.4601 0.0041 1.7219 0.041871 3.153 1.6825 3.0039 3.3904v8.2947z"/><path filter="url(#f)" fill="#fff" d="m9.4665 8.1364c0.0538 1.0993-1.3456 1.8438-2.2272 1.1846-0.9329-0.5661-0.7814-2.1244 0.2426-2.501 0.9068-0.412 2.0115 0.3195 1.9846 1.3164z"/><path filter="url(#g)" fill="#fff" d="m2.2188 8.0101c-0.050683 2.6828 2.0084 5.1986 4.6426 5.6942 2.5355 0.56756 5.3193-0.82178 6.4084-3.1764 1.171-2.3273 0.495-5.3808-1.544-7.0014-2.0151-1.7287-5.2247-1.7674-7.2812-0.0877-1.3893 1.0796-2.239 2.8098-2.226 4.5712zm1.75 0c-0.0473-2.0562 1.6974-3.9384 3.7503-4.0506 2.0492-0.206 4.0589 1.3931 4.3279 3.4328 0.353 1.9947-1.033 4.0867-3.0016 4.5527-1.9184 0.539-4.1009-0.582-4.7944-2.4467-0.187-0.4724-0.2827-0.9802-0.2822-1.4882z"/><path fill="url(#a)" d="m93.5 130.5"/>
</svg>
